<svg width="14" height="14" viewBox="0 0 14 14" fill="none" xmlns="http://www.w3.org/2000/svg">
<path d="M7 14C3.13996 14 0 10.86 0 7C0 3.13997 3.13996 0 7 0C10.86 0 14 3.14051 14 7C14 10.8595 10.86 14 7 14ZM7 1.08443C3.73857 1.08443 1.08443 3.73803 1.08443 7C1.08443 10.262 3.73857 12.9156 7 12.9156C10.2614 12.9156 12.9156 10.262 12.9156 7C12.9156 3.73803 10.262 1.08443 7 1.08443Z" fill="white"/>
<path d="M9.71109 7.59105H7.54223V9.7599C7.54223 10.0592 7.29986 10.3021 7.00001 10.3021C6.70016 10.3021 6.45778 10.0592 6.45778 9.7599V7.59105H4.28893C3.98908 7.59105 3.7467 7.34812 3.7467 7.04882C3.7467 6.74951 3.98908 6.50659 4.28893 6.50659H6.45778V4.33774C6.45778 4.03843 6.70016 3.79551 7.00001 3.79551C7.29986 3.79551 7.54223 4.03843 7.54223 4.33774V6.50659H9.71109C10.0109 6.50659 10.2533 6.74951 10.2533 7.04882C10.2533 7.34812 10.0109 7.59105 9.71109 7.59105Z" fill="white"/>
</svg>
