<svg width="11" height="11" viewBox="0 0 11 11" fill="none" xmlns="http://www.w3.org/2000/svg">
<g clip-path="url(#clip0)">
<path d="M6.5078 5.509L10.791 1.22569C11.0697 0.94708 11.0697 0.496604 10.791 0.217992C10.5124 -0.0606197 10.0619 -0.0606197 9.78329 0.217992L5.49996 4.5013L1.21676 0.217992C0.938019 -0.0606197 0.48767 -0.0606197 0.209058 0.217992C-0.0696859 0.496604 -0.0696859 0.94708 0.209058 1.22569L4.49226 5.509L0.209058 9.79232C-0.0696859 10.0709 -0.0696859 10.5214 0.209058 10.8C0.347907 10.939 0.530474 11.0088 0.71291 11.0088C0.895346 11.0088 1.07778 10.939 1.21676 10.8L5.49996 6.5167L9.78329 10.8C9.92227 10.939 10.1047 11.0088 10.2871 11.0088C10.4696 11.0088 10.652 10.939 10.791 10.8C11.0697 10.5214 11.0697 10.0709 10.791 9.79232L6.5078 5.509Z" fill="black"/>
</g>
<defs>
<clipPath id="clip0">
<rect width="11" height="11" fill="white"/>
</clipPath>
</defs>
</svg>
