<svg width="14" height="14" viewBox="0 0 14 14" fill="none" xmlns="http://www.w3.org/2000/svg">
<path d="M12.4486 6.64206C12.2629 6.45643 12.0376 6.36369 11.7724 6.36369H11.4544V4.45449C11.4544 3.23482 11.017 2.18756 10.1419 1.31256C9.26697 0.43752 8.21982 0 6.99997 0C5.78015 0 4.73279 0.43752 3.85789 1.31252C2.98286 2.18756 2.54548 3.23478 2.54548 4.45449V6.36369H2.22734C1.96228 6.36369 1.73685 6.45643 1.55123 6.64206C1.3656 6.82754 1.27283 7.05297 1.27283 7.31828V13.0455C1.27283 13.3105 1.36564 13.536 1.55123 13.7217C1.73685 13.9072 1.96228 14 2.22734 14H11.7726C12.0379 14 12.2631 13.9073 12.4488 13.7217C12.6343 13.536 12.7272 13.3105 12.7272 13.0455V7.31817C12.7274 7.05307 12.6343 6.82768 12.4486 6.64206ZM9.54537 6.36369H4.45457V4.45449C4.45457 3.75188 4.70319 3.15193 5.20033 2.65486C5.69755 2.15772 6.29739 1.9092 7.00008 1.9092C7.70283 1.9092 8.30253 2.15768 8.79978 2.65486C9.29678 3.1519 9.54537 3.75188 9.54537 4.45449V6.36369Z" fill="white"/>
</svg>
